<?xml version="1.0" encoding="utf-8"?>
<!-- Generator: Adobe Illustrator 28.0.0, SVG Export Plug-In . SVG Version: 6.00 Build 0)  -->
<svg version="1.1" id="Layer_1" xmlns="http://www.w3.org/2000/svg" xmlns:xlink="http://www.w3.org/1999/xlink" x="0px" y="0px"
	 viewBox="0 0 883.39 1080" style="enable-background:new 0 0 883.39 1080;" xml:space="preserve">
<style type="text/css">
	.st0{fill:#FFFFFF;}
</style>
<g>
	<g>
		<path class="st0" d="M599.92,624.01c-19.16,0.04-38.32,0.03-57.47,0.03c-2.81,0-2.8,0-2.36,2.71
			c2.81,17.31,10.77,31.77,24.13,43.14c10.45,8.9,22.55,14.23,36.19,16.04c1.21,0.16,1.28-0.23,1.27-1.22
			c-0.03-9.86-0.02-19.72-0.02-29.58c0-9.81-0.04-19.62,0.04-29.42C601.7,624.25,601.24,624.01,599.92,624.01z"/>
		<path class="st0" d="M618.79,608.4c9.86-0.05,19.72-0.03,29.58-0.03c9.86,0,19.72-0.02,29.58,0.03c1.08,0.01,1.41-0.22,1.18-1.31
			c-0.34-1.64-0.49-3.31-0.83-4.95c-3.36-15.79-11.16-28.97-23.45-39.41c-10.43-8.86-22.49-14.16-36.06-16.02
			c-1.22-0.17-1.4,0.13-1.4,1.25c0.03,19.67,0.03,39.34,0,59.01C617.38,608.1,617.63,608.41,618.79,608.4z"/>
		<path class="st0" d="M541.39,608.41c19.57-0.06,39.13-0.05,58.7-0.01c1.22,0,1.61-0.22,1.6-1.54c-0.06-9.81-0.03-19.62-0.03-29.43
			c0-9.5,0-19.01,0-28.51c0-2.45,0-2.46-2.38-2.08c-17.42,2.8-31.96,10.81-43.4,24.26c-8.75,10.3-13.97,22.24-15.91,35.63
			C539.77,608.04,539.95,608.41,541.39,608.41z"/>
		<path class="st0" d="M609.57,374.16c-133.74,0-242.17,108.42-242.17,242.17s108.42,242.17,242.17,242.17
			s242.16-108.42,242.16-242.17S743.31,374.16,609.57,374.16z M782.34,617.31c-6.75,5.84-14.54,10-22.52,13.77
			c-5.9,2.78-12.14,2.4-18.37,0.99c-2.32-0.52-4.6-1.25-6.98-1.51c-0.7-0.08-1.62-0.45-2.01,0.16c-0.4,0.63,0.46,1.21,0.81,1.77
			c2.23,3.57,4.82,6.96,5.88,11.12c2.49,9.78,0.42,18.44-6.8,25.64c-9.04,9.02-19.94,14.3-32.61,15.93
			c-0.25,0.03-0.51,0.03-0.76,0.04c-1.09,0.05-1.58-0.23-0.86-1.36c1.45-2.27,2.85-4.56,4.28-6.84c4.12-6.53,6.5-13.63,6.73-21.36
			c0.2-6.77-2.03-12.44-7.84-16.4c-2.06-1.4-4.07-2.86-6.21-4.13c-0.92-0.55-1.22-0.58-1.5,0.62c-4.07,17.28-12.6,32-25.65,44.05
			c-11.28,10.41-24.46,17.28-39.42,20.71c-0.14,0.03-0.28,0.09-0.42,0.13c-0.06,0.58,0.33,0.96,0.57,1.39
			c1.64,2.87,3.52,5.59,5.67,8.1c3.72,4.34,8.68,5.78,14.19,5.73c7.54-0.07,14.48-2.3,20.91-6.14c2.44-1.46,4.8-3.04,7.22-4.52
			c0.49-0.3,1.06-0.95,1.61-0.6c0.52,0.33,0.29,1.12,0.23,1.7c-0.53,5.55-1.96,10.87-4.32,15.92c-3.39,7.25-7.73,13.74-13.93,19
			c-8.69,7.37-21.58,6.92-29.21,2.03c-1.97-1.26-3.94-2.5-5.92-3.74c-0.32-0.2-0.63-0.66-1.06-0.39c-0.38,0.25-0.23,0.75-0.22,1.13
			c0.12,2.82,1.01,5.49,1.65,8.19c1.84,7.86,1.04,15.27-3.05,22.34c-3.66,6.32-6.93,12.87-11.85,18.39c-0.7,0.78-0.83,0.7-1.45-0.02
			c-5.86-6.73-10.03-14.52-13.81-22.5c-2.89-6.1-2.41-12.55-0.93-18.97c0.56-2.42,1.35-4.79,1.48-7.3c0.02-0.44,0.17-1.03-0.23-1.28
			c-0.45-0.29-0.82,0.26-1.18,0.48c-1.55,0.96-3.09,1.95-4.61,2.96c-9.39,6.23-23.07,6.29-32.67-3.39
			c-8.87-8.95-14.19-19.66-15.93-32.13c-0.11-0.82-0.49-1.95,0.23-2.41c0.65-0.41,1.45,0.48,2.12,0.87c4.02,2.35,7.72,5.24,12.09,7
			c5.72,2.31,11.58,3.76,17.8,3.28c5.16-0.4,9.49-2.41,12.69-6.6c1.82-2.38,3.54-4.83,5.05-7.42c0.47-0.8,0.39-1.04-0.56-1.26
			c-32.63-7.33-57.84-32.5-65.32-65.2c-0.24-1.06-0.53-1.09-1.34-0.6c-3.06,1.83-6.03,3.78-8.66,6.19
			c-3.63,3.33-5.1,7.65-5.26,12.42c-0.26,8.09,2.09,15.52,6.21,22.42c1.43,2.4,2.98,4.72,4.45,7.09c0.3,0.49,0.94,1.05,0.54,1.62
			c-0.36,0.51-1.14,0.27-1.72,0.2c-4.92-0.54-9.7-1.63-14.24-3.63c-7.26-3.2-13.84-7.33-19.37-13.17
			c-8.63-9.11-8.59-22.53-2.95-31.26c1.15-1.79,2.31-3.58,3.44-5.39c0.18-0.28,0.55-0.56,0.37-0.94c-0.22-0.46-0.71-0.3-1.08-0.29
			c-2.56,0.08-4.99,0.89-7.45,1.48c-7.44,1.76-14.69,1.71-21.6-2.07c-3.96-2.17-7.93-4.32-11.77-6.69c-2.94-1.82-5.76-3.8-8.32-6.15
			c-0.42-0.39-0.77-0.47-0.11-1.04c6.97-6.05,14.99-10.44,23.29-14.25c6.02-2.77,12.39-2.12,18.69-0.68
			c2.22,0.51,4.41,1.21,6.7,1.41c0.54,0.05,1.27,0.28,1.59-0.16c0.39-0.54-0.31-0.99-0.58-1.43c-0.89-1.48-1.82-2.93-2.78-4.37
			c-6.28-9.42-6.25-23.22,3.32-32.68c8.84-8.75,19.39-14.03,31.67-15.9c0.96-0.15,2.32-0.62,2.87,0.17c0.51,0.75-0.57,1.71-1.05,2.5
			c-2.73,4.44-5.84,8.67-7.55,13.68c-2.12,6.23-3.47,12.54-1.96,19.13c0.83,3.62,2.65,6.66,5.6,8.99c2.78,2.2,5.65,4.28,8.91,5.97
			c1.54-6.93,3.73-13.51,6.91-19.7c12.4-24.11,31.78-39.45,58.11-45.96c0.99-0.25,1.16-0.42,0.64-1.3c-1.86-3.1-3.83-6.12-6.26-8.8
			c-3.27-3.59-7.54-5.08-12.26-5.25c-8.76-0.31-16.68,2.4-23.99,7.07c-1.97,1.26-3.94,2.5-5.93,3.73c-0.41,0.25-0.89,0.75-1.37,0.41
			c-0.44-0.3-0.25-0.94-0.21-1.43c0.49-5.66,1.92-11.09,4.35-16.22c3.51-7.41,7.79-14.27,14.47-19.31
			c8.78-6.63,18.12-6.9,27.76-2.14c2.4,1.18,4.58,2.82,6.86,4.23c0.32,0.2,0.67,0.67,1.06,0.33c0.2-0.17,0.19-0.66,0.17-1
			c-0.1-2.92-1.04-5.69-1.68-8.5c-1.79-7.81-0.98-15.16,3.11-22.18c3.7-6.35,7-12.95,11.97-18.49c0.46-0.51,0.53-0.77,1.14-0.06
			c5.94,6.86,10.23,14.75,14.05,22.88c2.85,6.06,2.31,12.46,0.83,18.82c-0.55,2.37-1.31,4.7-1.45,7.15
			c-0.03,0.48-0.22,1.11,0.25,1.39c0.43,0.26,0.81-0.28,1.18-0.51c2.84-1.77,5.5-3.9,8.63-5.11c9.77-3.76,18.98-2.91,27.03,4.2
			c9.57,8.45,15.04,19.23,17.25,31.73c0.19,1.05,0.25,2.11,0.34,3.17c0.1,1.11-0.3,1.42-1.29,0.79c-1.89-1.19-3.8-2.33-5.67-3.56
			c-7.03-4.62-14.65-7.36-23.13-7.46c-6.72-0.08-12.14,2.39-15.98,8.07c-1.34,1.98-2.74,3.91-3.95,5.96
			c-0.48,0.82-0.46,1.09,0.6,1.34c17.35,4.05,32.11,12.59,44.21,25.66c10.39,11.23,17.24,24.36,20.67,39.27
			c0.27,1.18,0.51,1.26,1.5,0.67c2.97-1.77,5.85-3.69,8.45-5.97c4.25-3.73,5.63-8.71,5.55-14.13c-0.11-7.47-2.32-14.38-6.14-20.77
			c-1.48-2.48-3.09-4.89-4.61-7.35c-0.28-0.46-0.87-1.04-0.59-1.47c0.38-0.6,1.21-0.38,1.85-0.3c4.5,0.53,8.92,1.46,13.12,3.2
			c8.5,3.52,16.09,8.28,22.04,15.52c6.99,8.51,6.43,21.01,2.04,28.2c-1.32,2.16-2.7,4.29-4.04,6.45c-0.2,0.33-0.64,0.65-0.44,1.06
			c0.24,0.49,0.81,0.34,1.25,0.31c2.65-0.2,5.19-0.95,7.74-1.59c8.18-2.06,15.86-1.07,23.18,3.21c6.13,3.58,12.48,6.79,17.86,11.55
			C783.27,616.49,783.09,616.66,782.34,617.31z"/>
		<path class="st0" d="M677.88,624.02c-19.67,0.03-39.34,0.04-59.02-0.01c-1.24,0-1.49,0.37-1.48,1.53
			c0.04,9.81,0.03,19.62,0.03,29.43c0,9.51,0,19.01,0,28.52c0,2.75-0.01,2.71,2.73,2.27c13.68-2.19,25.78-7.77,36.08-17.03
			c12.91-11.61,20.57-26.07,22.93-43.31C679.33,624.18,679,624.01,677.88,624.02z"/>
	</g>
	<g>
		<path class="st0" d="M612.79,1003.65c-220.56-3.07-398.52-184.11-397.99-404.69c0.41-170.77,106.86-316.62,256.98-375.21
			c43.83-17.11,72.39-59.73,72.39-106.78v0c0-73.89-69.24-128.68-140.96-110.92C161.94,65.78-0.34,280.19-0.34,535.4
			c0,302.25,227.63,547.28,508.41,547.28c148.45,0,282.03-68.49,374.98-177.71C810.86,967.63,716.21,1005.09,612.79,1003.65z"/>
	</g>
</g>
</svg>
