<?xml version="1.0" encoding="utf-8"?>
<!-- Generator: Adobe Illustrator 28.0.0, SVG Export Plug-In . SVG Version: 6.00 Build 0)  -->
<svg version="1.1" id="Layer_1"
	xmlns="http://www.w3.org/2000/svg"
	xmlns:xlink="http://www.w3.org/1999/xlink" x="0px" y="0px" viewBox="0 0 880 1080" enable-background="new 0 0 880 1080" xml:space="preserve">
	<g>
		<path d="M824.693,118.693l42.812-35.853l11.151,13.244L717.033,266.185c-57.879-23.545-113.302-50.77-165.871-81.071
		c0,245.42,0,490.773,0,736.125c126.843-16.722,220.564-100.937,267.491-195.52h26.019
		c-9.956,205.085-172.641,352.845-382.918,352.845c-259.858,0-463.099-235.854-463.099-497.395
		c0-255.119,173.305-449.033,370.505-516.525l13.009,19.666c-60.136,31.305-109.187,77.927-145.295,137.459L594.77,1.435
		C662.871,51.736,737.344,91.067,824.693,118.693z M276.236,681.372c0-145.954,0-291.841,0-437.796l-72.15,44.348
		c-25.422,64.081-38.896,138.797-38.896,221.941c0,73.847,11.947,143.479,35.909,203.814L276.236,681.372z M504.766,924.25
		c2.456,0,4.978,0,7.434-0.067c0-254.115,0-508.231,0-762.346c-17.058-10.569-33.785-21.472-50.113-32.709l-10.554,6.488
		l-0.066,511.442l-235.499,99.867C269.665,853.882,365.975,924.25,504.766,924.25z"/>
	</g>
</svg>
