<?xml version="1.0" encoding="utf-8"?>
<!-- Generator: Adobe Illustrator 28.0.0, SVG Export Plug-In . SVG Version: 6.00 Build 0)  -->
<svg version="1.1" id="Layer_1" xmlns="http://www.w3.org/2000/svg" xmlns:xlink="http://www.w3.org/1999/xlink" x="0px" y="0px"
	 viewBox="0 0 352.61 720" style="enable-background:new 0 0 352.61 720;" xml:space="preserve">
<style type="text/css">
	.st0{fill:#FFFFFF;}
</style>
<g>
	<g>
		<path class="st0" d="M233.1,538.06c-7.09,0.02-14.19,0.01-21.28,0.01c-1.04,0-1.04,0-0.87,1.01c1.04,6.43,3.99,11.8,8.93,16.03
			c3.87,3.31,8.35,5.29,13.4,5.96c0.45,0.06,0.47-0.09,0.47-0.45c-0.01-3.66-0.01-7.32-0.01-10.99c0-3.64-0.01-7.29,0.01-10.93
			C233.76,538.14,233.59,538.05,233.1,538.06z"/>
		<path class="st0" d="M240.09,532.26c3.65-0.02,7.3-0.01,10.95-0.01c3.65,0,7.3-0.01,10.95,0.01c0.4,0,0.52-0.08,0.44-0.49
			c-0.13-0.61-0.18-1.23-0.31-1.84c-1.24-5.86-4.13-10.76-8.68-14.64c-3.86-3.29-8.33-5.26-13.35-5.95
			c-0.45-0.06-0.52,0.05-0.52,0.47c0.01,7.31,0.01,14.61,0,21.92C239.57,532.14,239.66,532.26,240.09,532.26z"/>
		<path class="st0" d="M211.43,532.26c7.24-0.02,14.49-0.02,21.74,0c0.45,0,0.6-0.08,0.59-0.57c-0.02-3.64-0.01-7.29-0.01-10.93
			c0-3.53,0-7.06,0-10.59c0-0.91,0-0.91-0.88-0.77c-6.45,1.04-11.84,4.01-16.07,9.01c-3.24,3.83-5.17,8.26-5.89,13.23
			C210.83,532.12,210.9,532.26,211.43,532.26z"/>
		<path class="st0" d="M236.67,445.25c-49.52,0-89.67,40.27-89.67,89.95s40.15,89.95,89.67,89.95s89.67-40.27,89.67-89.95
			S286.2,445.25,236.67,445.25z M300.65,535.57c-2.5,2.17-5.38,3.72-8.34,5.12c-2.18,1.03-4.5,0.89-6.8,0.37
			c-0.86-0.19-1.7-0.46-2.59-0.56c-0.26-0.03-0.6-0.17-0.74,0.06c-0.15,0.24,0.17,0.45,0.3,0.66c0.83,1.32,1.79,2.59,2.18,4.13
			c0.92,3.63,0.16,6.85-2.52,9.52c-3.35,3.35-7.38,5.31-12.07,5.92c-0.09,0.01-0.19,0.01-0.28,0.01c-0.4,0.02-0.59-0.09-0.32-0.51
			c0.54-0.84,1.05-1.69,1.58-2.54c1.53-2.43,2.41-5.06,2.49-7.93c0.08-2.52-0.75-4.62-2.9-6.09c-0.76-0.52-1.51-1.06-2.3-1.53
			c-0.34-0.2-0.45-0.22-0.56,0.23c-1.51,6.42-4.67,11.89-9.5,16.36c-4.18,3.87-9.06,6.42-14.6,7.69c-0.05,0.01-0.1,0.03-0.16,0.05
			c-0.02,0.22,0.12,0.36,0.21,0.52c0.61,1.07,1.3,2.08,2.1,3.01c1.38,1.61,3.22,2.15,5.26,2.13c2.79-0.03,5.36-0.85,7.74-2.28
			c0.9-0.54,1.78-1.13,2.68-1.68c0.18-0.11,0.39-0.35,0.6-0.22c0.19,0.12,0.11,0.42,0.09,0.63c-0.2,2.06-0.73,4.04-1.6,5.91
			c-1.25,2.69-2.86,5.1-5.16,7.06c-3.22,2.74-7.99,2.57-10.82,0.76c-0.73-0.47-1.46-0.93-2.19-1.39c-0.12-0.07-0.24-0.24-0.39-0.14
			c-0.14,0.09-0.09,0.28-0.08,0.42c0.04,1.05,0.37,2.04,0.61,3.04c0.68,2.92,0.39,5.67-1.13,8.3c-1.36,2.35-2.57,4.78-4.39,6.83
			c-0.26,0.29-0.31,0.26-0.54-0.01c-2.17-2.5-3.71-5.39-5.11-8.36c-1.07-2.27-0.89-4.66-0.35-7.04c0.21-0.9,0.5-1.78,0.55-2.71
			c0.01-0.17,0.06-0.38-0.08-0.47c-0.17-0.11-0.3,0.1-0.44,0.18c-0.57,0.36-1.14,0.72-1.71,1.1c-3.48,2.31-8.54,2.34-12.1-1.26
			c-3.29-3.32-5.26-7.3-5.9-11.94c-0.04-0.3-0.18-0.73,0.08-0.9c0.24-0.15,0.54,0.18,0.79,0.32c1.49,0.87,2.86,1.95,4.48,2.6
			c2.12,0.86,4.29,1.39,6.59,1.22c1.91-0.15,3.51-0.89,4.7-2.45c0.67-0.89,1.31-1.79,1.87-2.76c0.17-0.3,0.15-0.39-0.21-0.47
			c-12.08-2.72-21.42-12.07-24.19-24.22c-0.09-0.39-0.2-0.4-0.5-0.22c-1.13,0.68-2.23,1.4-3.21,2.3c-1.34,1.24-1.89,2.84-1.95,4.61
			c-0.1,3.01,0.77,5.77,2.3,8.33c0.53,0.89,1.11,1.75,1.65,2.63c0.11,0.18,0.35,0.39,0.2,0.6c-0.13,0.19-0.42,0.1-0.64,0.08
			c-1.82-0.2-3.59-0.61-5.27-1.35c-2.69-1.19-5.12-2.72-7.17-4.89c-3.19-3.38-3.18-8.37-1.09-11.61c0.43-0.67,0.85-1.33,1.27-2
			c0.07-0.11,0.2-0.21,0.14-0.35c-0.08-0.17-0.26-0.11-0.4-0.11c-0.95,0.03-1.85,0.33-2.76,0.55c-2.76,0.65-5.44,0.64-8-0.77
			c-1.47-0.8-2.93-1.6-4.36-2.49c-1.09-0.68-2.13-1.41-3.08-2.28c-0.16-0.14-0.28-0.17-0.04-0.39c2.58-2.25,5.55-3.88,8.62-5.29
			c2.23-1.03,4.59-0.79,6.92-0.25c0.82,0.19,1.63,0.45,2.48,0.52c0.2,0.02,0.47,0.1,0.59-0.06c0.14-0.2-0.11-0.37-0.21-0.53
			c-0.33-0.55-0.67-1.09-1.03-1.62c-2.32-3.5-2.31-8.62,1.23-12.14c3.27-3.25,7.18-5.21,11.73-5.91c0.36-0.05,0.86-0.23,1.06,0.06
			c0.19,0.28-0.21,0.63-0.39,0.93c-1.01,1.65-2.16,3.22-2.79,5.08c-0.79,2.32-1.28,4.66-0.73,7.1c0.31,1.35,0.98,2.47,2.08,3.34
			c1.03,0.82,2.09,1.59,3.3,2.22c0.57-2.58,1.38-5.02,2.56-7.32c4.59-8.95,11.77-14.65,21.52-17.07c0.37-0.09,0.43-0.16,0.24-0.48
			c-0.69-1.15-1.42-2.27-2.32-3.27c-1.21-1.33-2.79-1.89-4.54-1.95c-3.25-0.12-6.17,0.89-8.88,2.63c-0.73,0.47-1.46,0.93-2.19,1.38
			c-0.15,0.09-0.33,0.28-0.51,0.15c-0.16-0.11-0.09-0.35-0.08-0.53c0.18-2.1,0.71-4.12,1.61-6.03c1.3-2.75,2.89-5.3,5.36-7.17
			c3.25-2.46,6.71-2.56,10.28-0.8c0.89,0.44,1.69,1.05,2.54,1.57c0.12,0.07,0.25,0.25,0.39,0.12c0.07-0.06,0.07-0.24,0.06-0.37
			c-0.04-1.08-0.38-2.11-0.62-3.16c-0.66-2.9-0.36-5.63,1.15-8.24c1.37-2.36,2.59-4.81,4.43-6.87c0.17-0.19,0.2-0.29,0.42-0.02
			c2.2,2.55,3.79,5.48,5.2,8.5c1.05,2.25,0.85,4.63,0.31,6.99c-0.2,0.88-0.48,1.75-0.54,2.66c-0.01,0.18-0.08,0.41,0.09,0.52
			c0.16,0.1,0.3-0.1,0.44-0.19c1.05-0.66,2.04-1.45,3.2-1.9c3.62-1.4,7.03-1.08,10.01,1.56c3.54,3.14,5.57,7.14,6.39,11.79
			c0.07,0.39,0.09,0.79,0.13,1.18c0.04,0.41-0.11,0.53-0.48,0.29c-0.7-0.44-1.41-0.87-2.1-1.32c-2.6-1.71-5.43-2.73-8.56-2.77
			c-2.49-0.03-4.5,0.89-5.92,3c-0.49,0.73-1.01,1.45-1.46,2.22c-0.18,0.3-0.17,0.4,0.22,0.5c6.42,1.5,11.89,4.68,16.37,9.53
			c3.85,4.17,6.38,9.05,7.65,14.59c0.1,0.44,0.19,0.47,0.55,0.25c1.1-0.66,2.17-1.37,3.13-2.22c1.57-1.39,2.09-3.23,2.06-5.25
			c-0.04-2.78-0.86-5.34-2.28-7.71c-0.55-0.92-1.14-1.82-1.71-2.73c-0.1-0.17-0.32-0.38-0.22-0.55c0.14-0.22,0.45-0.14,0.69-0.11
			c1.67,0.2,3.3,0.54,4.86,1.19c3.15,1.31,5.96,3.08,8.16,5.77c2.59,3.16,2.38,7.8,0.76,10.47c-0.49,0.8-1,1.6-1.5,2.4
			c-0.08,0.12-0.24,0.24-0.16,0.39c0.09,0.18,0.3,0.13,0.46,0.11c0.98-0.08,1.92-0.35,2.87-0.59c3.03-0.76,5.87-0.4,8.58,1.19
			c2.27,1.33,4.62,2.52,6.61,4.29C300.99,535.26,300.93,535.32,300.65,535.57z"/>
		<path class="st0" d="M261.97,538.06c-7.28,0.01-14.57,0.01-21.85,0c-0.46,0-0.55,0.14-0.55,0.57c0.02,3.64,0.01,7.29,0.01,10.93
			c0,3.53,0,7.06,0,10.59c0,1.02,0,1.01,1.01,0.84c5.06-0.81,9.55-2.89,13.36-6.33c4.78-4.31,7.62-9.68,8.49-16.09
			C262.51,538.12,262.38,538.06,261.97,538.06z"/>
	</g>
	<path class="st0" d="M244.51,148.43c0,0,97.07,152.09-76.54,258.84c-12.43,7.64-23.96,16.69-34.05,27.25
		C10.77,563.26,173.35,765.26,352.61,628.7C302.97,750.58,95.05,756,24.71,611.16C6.4,573.47,2.96,530.29,11.68,489.29
		C54.49,287.9,271.45,374.46,244.51,148.43z"/>
	<path class="st0" d="M232.76,126.83c-6.88,8.19-11.42,17.33-13.67,27.4c0,0-14.51-92.71-78.86-154.22
		C193.19,317.39-6.28,273.92,0.15,503.05C45.73,258.55,268.77,379.05,232.76,126.83z M144.13,251.52c-4.34,0-7.85-3.53-7.85-7.88
		c0-4.35,3.51-7.88,7.85-7.88c4.34,0,7.85,3.53,7.85,7.88C151.98,248,148.46,251.52,144.13,251.52z M155.48,226.68
		c-4.34,0-7.85-3.53-7.85-7.88c0-4.35,3.51-7.88,7.85-7.88s7.85,3.53,7.85,7.88C163.33,223.15,159.82,226.68,155.48,226.68z
		 M163.33,201.84c-4.34,0-7.85-3.53-7.85-7.88c0-4.35,3.51-7.88,7.85-7.88c4.34,0,7.85,3.53,7.85,7.88
		C171.18,198.31,167.67,201.84,163.33,201.84z"/>
</g>
</svg>
