<?xml version="1.0" encoding="utf-8"?>
<!-- Generator: Adobe Illustrator 28.0.0, SVG Export Plug-In . SVG Version: 6.00 Build 0)  -->
<svg version="1.1" id="Layer_1"
	xmlns="http://www.w3.org/2000/svg"
	xmlns:xlink="http://www.w3.org/1999/xlink" x="0px" y="0px" viewBox="0 0 1050 435.2" style="enable-background:new 0 0 1050 435.2;" xml:space="preserve">
	<style type="text/css">
	.st0{fill:#FFFFFF;}
	</style>
	<g>
		<g>
			<g>
				<path class="st0" d="M241.88,250.37c-7.72,0.02-15.44,0.01-23.16,0.01c-1.13,0-1.13,0-0.95,1.09c1.13,6.97,4.34,12.8,9.72,17.38
				c4.21,3.59,9.09,5.74,14.58,6.46c0.49,0.06,0.51-0.09,0.51-0.49c-0.01-3.97-0.01-7.95-0.01-11.92c0-3.95-0.01-7.9,0.02-11.86
				C242.6,250.47,242.42,250.37,241.88,250.37z"/>
				<path class="st0" d="M249.49,244.08c3.97-0.02,7.95-0.01,11.92-0.01c3.97,0,7.95-0.01,11.92,0.01c0.44,0,0.57-0.09,0.48-0.53
				c-0.14-0.66-0.2-1.34-0.34-1.99c-1.35-6.36-4.5-11.67-9.45-15.88c-4.2-3.57-9.06-5.7-14.53-6.46c-0.49-0.07-0.57,0.05-0.56,0.51
				c0.01,7.93,0.01,15.85,0,23.78C248.92,243.96,249.02,244.09,249.49,244.08z"/>
				<path class="st0" d="M218.3,244.09c7.88-0.02,15.77-0.02,23.65,0c0.49,0,0.65-0.09,0.65-0.62c-0.03-3.95-0.01-7.9-0.01-11.86
				c0-3.83,0-7.66,0-11.49c0-0.99,0-0.99-0.96-0.84c-7.02,1.13-12.88,4.36-17.49,9.78c-3.53,4.15-5.63,8.96-6.41,14.36
				C217.65,243.94,217.72,244.09,218.3,244.09z"/>
				<path class="st0" d="M245.77,149.69c-53.89,0-97.58,43.69-97.58,97.58s43.69,97.58,97.58,97.58s97.58-43.69,97.58-97.58
				S299.67,149.69,245.77,149.69z M315.39,247.67c-2.72,2.35-5.86,4.03-9.07,5.55c-2.38,1.12-4.89,0.97-7.4,0.4
				c-0.94-0.21-1.85-0.5-2.81-0.61c-0.28-0.03-0.65-0.18-0.81,0.07c-0.16,0.26,0.19,0.49,0.33,0.71c0.9,1.44,1.94,2.81,2.37,4.48
				c1,3.94,0.17,7.43-2.74,10.33c-3.64,3.63-8.03,5.76-13.14,6.42c-0.1,0.01-0.2,0.01-0.31,0.02c-0.44,0.02-0.64-0.09-0.34-0.55
				c0.58-0.91,1.15-1.84,1.72-2.75c1.66-2.63,2.62-5.49,2.71-8.61c0.08-2.73-0.82-5.01-3.16-6.61c-0.83-0.56-1.64-1.15-2.5-1.66
				c-0.37-0.22-0.49-0.24-0.61,0.25c-1.64,6.96-5.08,12.89-10.34,17.75c-4.54,4.2-9.86,6.96-15.88,8.34
				c-0.06,0.01-0.11,0.03-0.17,0.05c-0.02,0.23,0.13,0.39,0.23,0.56c0.66,1.16,1.42,2.25,2.29,3.26c1.5,1.75,3.5,2.33,5.72,2.31
				c3.04-0.03,5.83-0.92,8.43-2.48c0.98-0.59,1.93-1.23,2.91-1.82c0.2-0.12,0.43-0.38,0.65-0.24c0.21,0.13,0.11,0.45,0.09,0.69
				c-0.21,2.24-0.79,4.38-1.74,6.42c-1.37,2.92-3.12,5.54-5.61,7.65c-3.5,2.97-8.7,2.79-11.77,0.82c-0.79-0.51-1.59-1.01-2.39-1.51
				c-0.13-0.08-0.26-0.27-0.43-0.16c-0.15,0.1-0.09,0.3-0.09,0.46c0.05,1.13,0.41,2.21,0.66,3.3c0.74,3.17,0.42,6.15-1.23,9
				c-1.48,2.55-2.79,5.19-4.77,7.41c-0.28,0.32-0.34,0.28-0.58-0.01c-2.36-2.71-4.04-5.85-5.56-9.07c-1.16-2.46-0.97-5.06-0.38-7.64
				c0.22-0.97,0.55-1.93,0.6-2.94c0.01-0.18,0.07-0.41-0.09-0.51c-0.18-0.11-0.33,0.1-0.48,0.19c-0.62,0.39-1.25,0.79-1.86,1.19
				c-3.79,2.51-9.3,2.53-13.16-1.37c-3.58-3.61-5.72-7.92-6.42-12.95c-0.05-0.33-0.2-0.79,0.09-0.97c0.26-0.17,0.58,0.19,0.86,0.35
				c1.62,0.95,3.11,2.11,4.87,2.82c2.3,0.93,4.67,1.51,7.17,1.32c2.08-0.16,3.83-0.97,5.11-2.66c0.73-0.96,1.43-1.94,2.04-2.99
				c0.19-0.32,0.16-0.42-0.23-0.51c-13.15-2.95-23.31-13.09-26.32-26.27c-0.1-0.43-0.21-0.44-0.54-0.24
				c-1.23,0.74-2.43,1.52-3.49,2.49c-1.46,1.34-2.06,3.08-2.12,5c-0.1,3.26,0.84,6.25,2.5,9.04c0.58,0.97,1.2,1.9,1.79,2.86
				c0.12,0.2,0.38,0.42,0.22,0.65c-0.14,0.21-0.46,0.11-0.69,0.08c-1.98-0.22-3.91-0.66-5.74-1.46c-2.93-1.29-5.58-2.95-7.8-5.31
				c-3.48-3.67-3.46-9.08-1.19-12.6c0.47-0.72,0.93-1.44,1.39-2.17c0.07-0.11,0.22-0.23,0.15-0.38c-0.09-0.19-0.29-0.12-0.44-0.12
				c-1.03,0.03-2.01,0.36-3,0.59c-3,0.71-5.92,0.69-8.7-0.83c-1.6-0.87-3.19-1.74-4.74-2.7c-1.19-0.73-2.32-1.53-3.35-2.48
				c-0.17-0.16-0.31-0.19-0.05-0.42c2.81-2.44,6.04-4.21,9.38-5.74c2.43-1.12,4.99-0.86,7.53-0.27c0.9,0.21,1.78,0.49,2.7,0.57
				c0.22,0.02,0.51,0.11,0.64-0.06c0.16-0.22-0.12-0.4-0.23-0.58c-0.36-0.59-0.73-1.18-1.12-1.76c-2.53-3.8-2.52-9.36,1.34-13.17
				c3.56-3.53,7.82-5.65,12.76-6.41c0.39-0.06,0.94-0.25,1.15,0.07c0.21,0.3-0.23,0.69-0.42,1.01c-1.1,1.79-2.35,3.49-3.04,5.51
				c-0.86,2.51-1.4,5.05-0.79,7.71c0.33,1.46,1.07,2.68,2.26,3.62c1.12,0.89,2.27,1.72,3.59,2.41c0.62-2.79,1.5-5.45,2.79-7.94
				c5-9.71,12.81-15.9,23.41-18.52c0.4-0.1,0.47-0.17,0.26-0.52c-0.75-1.25-1.54-2.47-2.52-3.54c-1.32-1.45-3.04-2.05-4.94-2.11
				c-3.53-0.13-6.72,0.97-9.67,2.85c-0.79,0.51-1.59,1.01-2.39,1.5c-0.17,0.1-0.36,0.3-0.55,0.17c-0.18-0.12-0.1-0.38-0.09-0.57
				c0.2-2.28,0.78-4.47,1.75-6.54c1.41-2.99,3.14-5.75,5.83-7.78c3.54-2.67,7.3-2.78,11.18-0.86c0.97,0.48,1.84,1.14,2.77,1.7
				c0.13,0.08,0.27,0.27,0.43,0.13c0.08-0.07,0.08-0.26,0.07-0.4c-0.04-1.18-0.42-2.29-0.68-3.42c-0.72-3.15-0.4-6.11,1.25-8.94
				c1.49-2.56,2.82-5.22,4.82-7.45c0.18-0.2,0.21-0.31,0.46-0.02c2.39,2.77,4.12,5.94,5.66,9.22c1.15,2.44,0.93,5.02,0.34,7.59
				c-0.22,0.95-0.53,1.89-0.58,2.88c-0.01,0.19-0.09,0.45,0.1,0.56c0.17,0.1,0.33-0.11,0.47-0.2c1.14-0.71,2.22-1.57,3.48-2.06
				c3.94-1.52,7.65-1.17,10.89,1.69c3.85,3.41,6.06,7.75,6.95,12.79c0.07,0.42,0.1,0.85,0.14,1.28c0.04,0.45-0.12,0.57-0.52,0.32
				c-0.76-0.48-1.53-0.94-2.28-1.43c-2.83-1.86-5.91-2.96-9.32-3.01c-2.71-0.03-4.89,0.96-6.44,3.25c-0.54,0.8-1.1,1.57-1.59,2.4
				c-0.2,0.33-0.19,0.44,0.24,0.54c6.99,1.63,12.94,5.07,17.81,10.34c4.19,4.53,6.95,9.82,8.33,15.82c0.11,0.48,0.21,0.51,0.6,0.27
				c1.2-0.71,2.36-1.49,3.4-2.41c1.71-1.5,2.27-3.51,2.24-5.69c-0.05-3.01-0.94-5.79-2.48-8.37c-0.6-1-1.24-1.97-1.86-2.96
				c-0.11-0.18-0.35-0.42-0.24-0.59c0.15-0.24,0.49-0.15,0.75-0.12c1.81,0.21,3.59,0.59,5.29,1.29c3.43,1.42,6.49,3.34,8.88,6.25
				c2.82,3.43,2.59,8.46,0.82,11.36c-0.53,0.87-1.09,1.73-1.63,2.6c-0.08,0.13-0.26,0.26-0.18,0.43c0.1,0.2,0.33,0.14,0.5,0.12
				c1.07-0.08,2.09-0.38,3.12-0.64c3.3-0.83,6.39-0.43,9.34,1.29c2.47,1.44,5.03,2.74,7.2,4.66
				C315.77,247.34,315.7,247.41,315.39,247.67z"/>
				<path class="st0" d="M273.3,250.38c-7.93,0.01-15.85,0.01-23.78,0c-0.5,0-0.6,0.15-0.6,0.62c0.02,3.95,0.01,7.91,0.01,11.86
				c0,3.83,0,7.66,0,11.49c0,1.11,0,1.09,1.1,0.92c5.51-0.88,10.39-3.13,14.54-6.86c5.2-4.68,8.29-10.5,9.24-17.45
				C273.88,250.44,273.75,250.38,273.3,250.38z"/>
			</g>
			<g>
				<path class="st0" d="M247.07,403.36c-88.88-1.24-160.59-74.19-160.38-163.07c0.17-68.82,43.06-127.58,103.55-151.2
				c17.66-6.89,29.17-24.07,29.17-43.03v0c0-29.77-27.9-51.85-56.8-44.7C65.39,25.43,0,111.83,0,214.67
				C0,336.46,91.72,435.2,204.87,435.2c59.82,0,113.65-27.6,151.1-71.61C326.89,388.84,288.75,403.93,247.07,403.36z"/>
			</g>
		</g>
		<g>
			<path class="st0" d="M416.63,94.75c5.24-9.49,12.54-16.88,21.92-22.18c9.37-5.3,19.99-7.95,31.87-7.95
			c14.55,0,27.01,3.84,37.37,11.53c10.36,7.68,17.29,18.16,20.78,31.43h-32.83c-2.45-5.12-5.91-9.02-10.39-11.7
			c-4.48-2.68-9.58-4.02-15.28-4.02c-9.2,0-16.65,3.2-22.35,9.6c-5.71,6.4-8.56,14.96-8.56,25.67c0,10.71,2.85,19.27,8.56,25.67
			c5.7,6.4,13.15,9.6,22.35,9.6c5.7,0,10.8-1.34,15.28-4.02c4.48-2.68,7.95-6.58,10.39-11.7h32.83
			c-3.49,13.27-10.42,23.72-20.78,31.35c-10.36,7.63-22.82,11.44-37.37,11.44c-11.87,0-22.5-2.65-31.87-7.95
			c-9.37-5.3-16.68-12.66-21.92-22.09c-5.24-9.43-7.86-20.2-7.86-32.31C408.77,115.04,411.39,104.24,416.63,94.75z"/>
			<path class="st0" d="M552.57,76.41c-3.32-3.08-4.98-6.9-4.98-11.44c0-4.65,1.66-8.53,4.98-11.61c3.32-3.08,7.6-4.63,12.84-4.63
			c5.12,0,9.34,1.54,12.66,4.63c3.32,3.09,4.98,6.96,4.98,11.61c0,4.54-1.66,8.36-4.98,11.44c-3.32,3.09-7.54,4.63-12.66,4.63
			C560.17,81.04,555.89,79.5,552.57,76.41z M580.25,91.17v97.44h-29.86V91.17H580.25z"/>
			<path class="st0" d="M605.14,113.35c3.78-7.57,8.93-13.39,15.45-17.46c6.52-4.07,13.8-6.11,21.83-6.11
			c6.87,0,12.89,1.4,18.07,4.19c5.18,2.79,9.17,6.46,11.96,11v-13.8h29.86v97.44h-29.86v-13.8c-2.91,4.54-6.96,8.21-12.14,11
			c-5.18,2.79-11.21,4.19-18.07,4.19c-7.92,0-15.14-2.07-21.65-6.2c-6.52-4.13-11.67-10.01-15.45-17.64
			c-3.78-7.62-5.68-16.44-5.68-26.46C599.46,129.7,601.35,120.92,605.14,113.35z M666.26,122.25c-4.13-4.31-9.17-6.46-15.11-6.46
			c-5.94,0-10.97,2.13-15.11,6.37c-4.13,4.25-6.2,10.1-6.2,17.55c0,7.45,2.07,13.36,6.2,17.72c4.13,4.37,9.17,6.55,15.11,6.55
			c5.94,0,10.97-2.15,15.11-6.46c4.13-4.31,6.2-10.19,6.2-17.64C672.46,132.44,670.39,126.56,666.26,122.25z"/>
			<path class="st0" d="M880.7,101.12c7.16,7.33,10.74,17.52,10.74,30.56v56.93h-29.69V135.7c0-6.29-1.66-11.15-4.98-14.58
			c-3.32-3.43-7.89-5.15-13.71-5.15c-5.82,0-10.39,1.72-13.71,5.15c-3.32,3.44-4.98,8.29-4.98,14.58v52.91h-29.69V135.7
			c0-6.29-1.66-11.15-4.98-14.58c-3.32-3.43-7.89-5.15-13.71-5.15c-5.82,0-10.39,1.72-13.71,5.15c-3.32,3.44-4.98,8.29-4.98,14.58
			v52.91h-29.86V91.17h29.86v12.22c3.03-4.07,6.99-7.3,11.87-9.69c4.89-2.38,10.42-3.58,16.59-3.58c7.33,0,13.88,1.57,19.65,4.71
			c5.76,3.14,10.27,7.63,13.53,13.45c3.37-5.35,7.97-9.72,13.8-13.1c5.82-3.38,12.16-5.06,19.03-5.06
			C863.9,90.12,873.54,93.79,880.7,101.12z"/>
			<path class="st0" d="M918.07,76.41c-3.32-3.08-4.98-6.9-4.98-11.44c0-4.65,1.66-8.53,4.98-11.61c3.32-3.08,7.6-4.63,12.84-4.63
			c5.12,0,9.34,1.54,12.66,4.63c3.32,3.09,4.98,6.96,4.98,11.61c0,4.54-1.66,8.36-4.98,11.44c-3.32,3.09-7.54,4.63-12.66,4.63
			C925.66,81.04,921.39,79.5,918.07,76.41z M945.75,91.17v97.44h-29.86V91.17H945.75z"/>
			<path class="st0" d="M987.83,185.64c-6.64-2.91-11.87-6.9-15.72-11.96c-3.84-5.06-6-10.74-6.46-17.03h29.51
			c0.35,3.38,1.92,6.11,4.71,8.21c2.79,2.1,6.23,3.14,10.3,3.14c3.72,0,6.61-0.73,8.64-2.18c2.04-1.45,3.06-3.35,3.06-5.68
			c0-2.79-1.46-4.86-4.37-6.2c-2.91-1.34-7.63-2.82-14.14-4.45c-6.99-1.63-12.81-3.35-17.46-5.15c-4.66-1.8-8.67-4.65-12.05-8.56
			c-3.38-3.9-5.06-9.17-5.06-15.8c0-5.59,1.54-10.68,4.63-15.28c3.08-4.6,7.62-8.23,13.62-10.91c5.99-2.68,13.12-4.02,21.39-4.02
			c12.22,0,21.86,3.03,28.9,9.08c7.04,6.05,11.09,14.09,12.14,24.1h-27.59c-0.47-3.37-1.95-6.05-4.45-8.03
			c-2.51-1.98-5.79-2.97-9.87-2.97c-3.49,0-6.17,0.67-8.03,2.01c-1.86,1.34-2.79,3.17-2.79,5.5c0,2.79,1.48,4.89,4.45,6.29
			c2.97,1.4,7.6,2.79,13.88,4.19c7.22,1.86,13.1,3.7,17.64,5.5c4.54,1.81,8.53,4.71,11.96,8.73c3.43,4.02,5.21,9.4,5.33,16.15
			c0,5.71-1.6,10.8-4.8,15.28c-3.2,4.48-7.8,8.01-13.8,10.57c-6,2.56-12.95,3.84-20.87,3.84
			C1002.03,190.01,994.47,188.55,987.83,185.64z"/>
			<path class="st0" d="M502.02,262.48v23.92h-32.48v98.67h-29.86V286.4H407.2v-23.92H502.02z"/>
			<path class="st0" d="M522.71,272.87c-3.32-3.08-4.98-6.9-4.98-11.44c0-4.65,1.66-8.53,4.98-11.61c3.32-3.08,7.6-4.63,12.84-4.63
			c5.12,0,9.34,1.54,12.66,4.63c3.32,3.09,4.98,6.96,4.98,11.61c0,4.54-1.66,8.35-4.98,11.44c-3.32,3.09-7.54,4.63-12.66,4.63
			C530.31,277.5,526.03,275.96,522.71,272.87z M550.39,287.63v97.44h-29.86v-97.44H550.39z"/>
			<path class="st0" d="M728.77,297.58c7.16,7.33,10.74,17.52,10.74,30.56v56.93h-29.69v-52.91c0-6.29-1.66-11.15-4.98-14.58
			c-3.32-3.43-7.89-5.15-13.71-5.15c-5.82,0-10.39,1.72-13.71,5.15c-3.32,3.44-4.98,8.29-4.98,14.58v52.91h-29.69v-52.91
			c0-6.29-1.66-11.15-4.98-14.58c-3.32-3.43-7.89-5.15-13.71-5.15c-5.82,0-10.39,1.72-13.71,5.15c-3.32,3.44-4.98,8.29-4.98,14.58
			v52.91h-29.86v-97.44h29.86v12.22c3.03-4.07,6.99-7.3,11.87-9.69c4.89-2.38,10.42-3.58,16.59-3.58c7.33,0,13.88,1.57,19.65,4.71
			c5.76,3.14,10.27,7.63,13.53,13.45c3.37-5.35,7.97-9.72,13.8-13.1c5.82-3.38,12.16-5.06,19.03-5.06
			C711.98,286.58,721.61,290.25,728.77,297.58z"/>
			<path class="st0" d="M855.29,343.51h-67.58c0.46,6.05,2.41,10.68,5.85,13.88c3.43,3.2,7.65,4.8,12.66,4.8
			c7.45,0,12.63-3.14,15.54-9.43h31.78c-1.63,6.4-4.57,12.17-8.82,17.29c-4.25,5.12-9.58,9.14-15.98,12.05
			c-6.4,2.91-13.56,4.37-21.48,4.37c-9.55,0-18.05-2.04-25.5-6.11c-7.45-4.07-13.27-9.89-17.46-17.46
			c-4.19-7.57-6.29-16.42-6.29-26.54c0-10.13,2.07-18.97,6.2-26.54c4.13-7.57,9.92-13.39,17.38-17.46
			c7.45-4.07,16.01-6.11,25.67-6.11c9.43,0,17.81,1.98,25.15,5.94c7.33,3.96,13.07,9.6,17.2,16.94c4.13,7.33,6.2,15.89,6.2,25.67
			C855.81,337.57,855.64,340.48,855.29,343.51z M825.25,326.92c0-5.12-1.75-9.2-5.24-12.22c-3.49-3.03-7.86-4.54-13.1-4.54
			c-5.01,0-9.23,1.46-12.66,4.37c-3.44,2.91-5.56,7.04-6.37,12.4H825.25z"/>
			<path class="st0" d="M891.96,382.1c-6.64-2.91-11.87-6.9-15.72-11.96c-3.84-5.06-6-10.74-6.46-17.03h29.51
			c0.35,3.38,1.92,6.11,4.71,8.21c2.79,2.1,6.23,3.14,10.3,3.14c3.72,0,6.61-0.73,8.64-2.18c2.04-1.45,3.06-3.35,3.06-5.68
			c0-2.79-1.46-4.86-4.37-6.2c-2.91-1.34-7.63-2.82-14.14-4.45c-6.99-1.63-12.81-3.35-17.46-5.15c-4.66-1.8-8.67-4.65-12.05-8.56
			c-3.38-3.9-5.06-9.17-5.06-15.8c0-5.59,1.54-10.68,4.63-15.28c3.08-4.6,7.62-8.23,13.62-10.91c5.99-2.68,13.12-4.02,21.39-4.02
			c12.22,0,21.86,3.03,28.9,9.08c7.04,6.05,11.09,14.09,12.14,24.1h-27.59c-0.47-3.37-1.95-6.05-4.45-8.03
			c-2.51-1.98-5.79-2.97-9.87-2.97c-3.49,0-6.17,0.67-8.03,2.01c-1.86,1.34-2.79,3.17-2.79,5.5c0,2.79,1.48,4.89,4.45,6.29
			c2.97,1.4,7.6,2.79,13.88,4.19c7.22,1.86,13.1,3.7,17.64,5.5c4.54,1.81,8.53,4.71,11.96,8.73c3.43,4.02,5.21,9.4,5.33,16.15
			c0,5.71-1.6,10.8-4.8,15.28c-3.2,4.48-7.8,8.01-13.8,10.57c-6,2.56-12.95,3.84-20.87,3.84
			C906.16,386.47,898.6,385.01,891.96,382.1z"/>
		</g>
	</g>
</svg>
