<?xml version="1.0" encoding="utf-8"?>
<!-- Generator: Adobe Illustrator 28.0.0, SVG Export Plug-In . SVG Version: 6.00 Build 0)  -->
<svg version="1.1" id="Layer_1"
	xmlns="http://www.w3.org/2000/svg"
	xmlns:xlink="http://www.w3.org/1999/xlink" x="0px" y="0px" width="320,2766" height="25" viewBox="0 0 320.28 46" style="enable-background:new 0 0 320.28 46;" xml:space="preserve">
	<style type="text/css">
	.st0{display:none;}
	.st1{display:inline;}
	</style>
	<g>
		<path d="M33.16,5.89l1.72-1.43l0.45,0.53l-6.49,6.77c-2.32-0.94-4.55-2.02-6.66-3.23c0,9.77,0,19.55,0,29.32
		c5.09-0.67,8.85-4.02,10.74-7.79h1.05c-0.4,8.17-6.93,14.05-15.37,14.05C8.16,44.12,0,34.73,0,24.31C0,14.15,6.96,6.43,14.87,3.74
		l0.52,0.78c-2.41,1.25-4.38,3.1-5.83,5.47l14.37-8.78v0v0C26.66,3.22,29.65,4.79,33.16,5.89z M11.14,28.3c0-5.81,0-11.63,0-17.44
		l-2.89,1.77c-1.02,2.55-1.56,5.53-1.56,8.84c0,2.94,0.48,5.71,1.44,8.12L11.14,28.3z M20.31,37.98c0.1,0,0.2,0,0.3,0
		c0-10.12,0-20.24,0-30.37c-0.68-0.42-1.36-0.86-2.01-1.3l-0.42,0.26l0,20.37l-9.45,3.98C10.88,35.17,14.74,37.98,20.31,37.98z"/>
		<path d="M53.36,37.94l-7.84,5.49l-5.23-4.71l-1.83,1.31l-0.78-1.05l3.4-2.35V22.26l-1.83-2.35l-2.09,1.31l-0.78-1.05l7.32-4.97
		l4.18,4.97v16.47l1.83,1.83l2.35-1.57L53.36,37.94z M44.54,3.27l4.65,5.29l-5.21,4.57l-4.65-5.29L44.54,3.27z"/>
		<path d="M54.68,36.24c0-2.92,2.25-5.69,6.3-7.85c-2.51-1.08-4.45-2.66-4.45-5.18c0-2.4,1.79-3.77,3.41-4.61l6.01-3.14L74,20.65
		l2.2-1.79l0.96,1.19l-2.85,2.31v13.75l2.61,2.61l2.35-1.57l0.26,1.05l-7.59,5.21l-4.16-4.17l-5.76,4.18
		C58.57,42.98,54.68,40.32,54.68,36.24z M58.11,22.89c0,3.5,5.77,4.95,9.41,5.79c0-1.71,0-3.41,0-5.12l-6.44-3.96
		C59.48,20.45,58.11,21.45,58.11,22.89z M61.97,28.78c-0.36,0.53-0.69,1.46-0.69,2.5c0,3.09,1.72,7.44,5.11,7.44
		c0.38,0,0.77-0.06,1.13-0.17c0-2.75,0-5.5,0-8.25C65.78,29.91,63.78,29.45,61.97,28.78z"/>
		<path d="M100.87,43.95l-5.4-4.7l2.29-2.09V23.71l-3.78-3.44l-2.38,1.44v15.44l2.35,2.09l-5.23,4.71l-6.27-4.97l2.09-1.83V22.67
		l-2.09-2.35l-2.09,1.31l-0.78-1.05l7.58-5.23l4.01,4.47l7.17-4.47l5.43,4.68l7.5-4.68l5.66,4.88l1.78-1.44l0.96,1.19l-2.7,2.19
		v13.7l2.55,2.6l2.34-1.76l0.04,2l-8.09,5.25l-5.4-4.7l2.29-2.09V23.71l-3.78-3.44l-2.87,1.74V36.6l2.83,2.53L100.87,43.95z"/>
		<path d="M139.53,37.94l-7.84,5.49l-5.23-4.71l-1.83,1.31l-0.78-1.05l3.4-2.35V22.26l-1.83-2.35l-2.09,1.31l-0.78-1.05l7.32-4.97
		l4.18,4.97v16.47l1.83,1.83l2.35-1.57L139.53,37.94z M130.71,3.27l4.65,5.29l-5.21,4.57l-4.65-5.29L130.71,3.27z"/>
		<path d="M140.34,40.91c0-2.26,0.89-4.26,5.18-8.24l-4.13-3.26v-7.63l11.27-6.54c0.79,1.17,2.14,2.38,3.98,2.38
		c1.43,0,2.59-0.98,2.73-2.27l0.02,0c0,0,0,0,0,0h1.54c-0.43,4.16-1.68,7.27-4.76,10.1l4.7,3.48l0,8.23L150.1,43.7
		c-0.73-1.3-2.1-2.55-4.04-2.55c-1.28,0-2.57,0.73-2.57,2.06c0,0.65,0.34,1.11,0.78,1.35L143.73,46
		C141.85,45.27,140.34,43.47,140.34,40.91z M148.85,31.75c-1.93,1.66-3.87,3.28-5.21,4.94c1.03-0.82,2.37-1.3,3.82-1.3
		c3.12,0,5.36,1.98,6.37,4.19v-7.1l-3.02-2.41L148.85,31.75z M154.69,24.72c0.78-0.67,1.6-1.47,2.33-2.51
		c-0.83,0.36-1.76,0.56-2.74,0.56c-2.36,0-4.75-1.24-5.87-4.01v7.1l2.26,2.3L154.69,24.72z"/>
		<path d="M186.8,13.63l-0.52,0.78c-2.04-0.9-3.72-2.9-3.72-5.75c0-3.91,3.34-7.33,8.64-7.33c4.61,0,11.83,3.9,16.81,3.9
		c1.17,0,2.3-0.55,2.3-1.75c0-1.92-2.49-2.17-4.16-2.4V0.04c5.1-0.39,9.09,2.41,9.09,6.41c0,3.93-3.46,6.03-7.4,6.03
		c-0.02,0-0.03,0-0.05,0v6.57l3.64,3.64l-3.64,3.64v8.34c2.66-1.79,4.62-4.43,5.68-7.17h1.05c0.01,0.18,0.01,0.35,0.01,0.53
		c0,8.33-6.96,14.95-15.81,14.95c-8.92,0-17.44-6.93-17.44-17.01c0-6.69,4.76-13.86,12.84-15.2l0.52,0.78
		c-0.94,0.63-3.78,2.76-5.5,6.45l12.01-5.12l0,16.56l-9.61,4.04c2.16,2.15,5.15,3.5,8.67,3.5c2.24,0,4.27-0.53,6.05-1.42v-9.29
		l-3.58-3.58l3.58-3.58v-6.73c-5.18-0.62-14.62-3.69-17.18-3.69c-1.89,0-3.6,0.95-3.6,2.84C185.47,12.55,186.06,13.28,186.8,13.63z M187.77,24.2c0,3.03,0.99,5.89,2.74,8.13l3.59-1.53l0-13.34l-5.69,2.4C188.02,21.15,187.77,22.6,187.77,24.2z"/>
		<path d="M233.06,37.94l-7.84,5.49l-5.23-4.71l-1.83,1.31l-0.78-1.05l3.4-2.35V22.26l-1.83-2.35l-2.09,1.31l-0.78-1.05l7.32-4.97
		l4.18,4.97v16.47l1.83,1.83l2.35-1.57L233.06,37.94z M224.23,3.27l4.65,5.29l-5.21,4.57l-4.65-5.29L224.23,3.27z"/>
		<path d="M253.84,43.95l-5.4-4.7l2.29-2.09V23.71l-3.78-3.44l-2.38,1.44v15.44l2.35,2.09l-5.23,4.71l-6.27-4.97l2.09-1.83V22.67
		l-2.09-2.35l-2.09,1.31l-0.78-1.05l7.58-5.23l4.01,4.47l7.17-4.47l5.43,4.68l7.5-4.68l5.66,4.88l1.78-1.44l0.96,1.19l-2.7,2.19
		v13.7l2.55,2.6l2.34-1.76l0.04,2l-8.09,5.25l-5.4-4.7l2.29-2.09V23.71l-3.78-3.44L257,22.01V36.6l2.83,2.53L253.84,43.95z"/>
		<path d="M275.23,38.45l2.58-2.09V21.99l13.07-6.8l5.49,8.37v0.26l-11.76,7.32v2.35l6.54,4.44l6.01-4.71l0.78,1.31l-11.24,9.15
		l-8.09-6.01l-2.41,1.96L275.23,38.45z M290.08,25.8l-4.43-6.41l-1.05,0.59v9.3L290.08,25.8z"/>
		<path d="M299.69,40.91c0-2.26,0.89-4.26,5.18-8.24l-4.13-3.26v-7.63l11.27-6.54c0.79,1.17,2.14,2.38,3.98,2.38
		c1.43,0,2.59-0.98,2.73-2.27l0.02,0c0,0,0,0,0,0h1.54c-0.43,4.16-1.68,7.27-4.76,10.1l4.7,3.48l0,8.23l-10.77,6.54
		c-0.73-1.3-2.1-2.55-4.04-2.55c-1.28,0-2.57,0.73-2.57,2.06c0,0.65,0.34,1.11,0.78,1.35L303.09,46
		C301.21,45.27,299.69,43.47,299.69,40.91z M308.2,31.75c-1.93,1.66-3.87,3.28-5.21,4.94c1.03-0.82,2.37-1.3,3.82-1.3
		c3.12,0,5.36,1.98,6.37,4.19v-7.1l-3.02-2.41L308.2,31.75z M314.04,24.72c0.78-0.67,1.6-1.47,2.33-2.51
		c-0.83,0.36-1.76,0.56-2.74,0.56c-2.36,0-4.75-1.24-5.87-4.01v7.1l2.26,2.3L314.04,24.72z"/>
	</g>
</svg>
