<?xml version="1.0" encoding="utf-8"?>
<!-- Generator: Adobe Illustrator 28.0.0, SVG Export Plug-In . SVG Version: 6.00 Build 0)  -->
<svg version="1.1" id="Layer_1" xmlns="http://www.w3.org/2000/svg" xmlns:xlink="http://www.w3.org/1999/xlink" x="0px" y="0px"
	 viewBox="0 0 1080 720" style="enable-background:new 0 0 1080 720;" xml:space="preserve">
<style type="text/css">
	.st0{fill:#FFFFFF;}
</style>
<g>
	<g>
		<path class="st0" d="M233.1,538.06c-7.09,0.02-14.19,0.01-21.28,0.01c-1.04,0-1.04,0-0.87,1.01c1.04,6.43,3.99,11.8,8.93,16.03
			c3.87,3.31,8.35,5.29,13.4,5.96c0.45,0.06,0.47-0.09,0.47-0.45c-0.01-3.66-0.01-7.32-0.01-10.99c0-3.64-0.01-7.29,0.01-10.93
			C233.76,538.14,233.59,538.05,233.1,538.06z"/>
		<path class="st0" d="M240.09,532.26c3.65-0.02,7.3-0.01,10.95-0.01c3.65,0,7.3-0.01,10.95,0.01c0.4,0,0.52-0.08,0.44-0.49
			c-0.13-0.61-0.18-1.23-0.31-1.84c-1.24-5.86-4.13-10.76-8.68-14.64c-3.86-3.29-8.33-5.26-13.35-5.95
			c-0.45-0.06-0.52,0.05-0.52,0.47c0.01,7.31,0.01,14.61,0,21.92C239.57,532.14,239.66,532.26,240.09,532.26z"/>
		<path class="st0" d="M211.43,532.26c7.24-0.02,14.49-0.02,21.74,0c0.45,0,0.6-0.08,0.59-0.57c-0.02-3.64-0.01-7.29-0.01-10.93
			c0-3.53,0-7.06,0-10.59c0-0.91,0-0.91-0.88-0.77c-6.45,1.04-11.84,4.01-16.07,9.01c-3.24,3.83-5.17,8.26-5.89,13.23
			C210.83,532.12,210.9,532.26,211.43,532.26z"/>
		<path class="st0" d="M236.67,445.25c-49.52,0-89.67,40.27-89.67,89.95s40.15,89.95,89.67,89.95s89.67-40.27,89.67-89.95
			S286.2,445.25,236.67,445.25z M300.65,535.57c-2.5,2.17-5.38,3.72-8.34,5.12c-2.18,1.03-4.5,0.89-6.8,0.37
			c-0.86-0.19-1.7-0.46-2.59-0.56c-0.26-0.03-0.6-0.17-0.74,0.06c-0.15,0.24,0.17,0.45,0.3,0.66c0.83,1.32,1.79,2.59,2.18,4.13
			c0.92,3.63,0.16,6.85-2.52,9.52c-3.35,3.35-7.38,5.31-12.07,5.92c-0.09,0.01-0.19,0.01-0.28,0.01c-0.4,0.02-0.59-0.09-0.32-0.51
			c0.54-0.84,1.05-1.69,1.58-2.54c1.53-2.43,2.41-5.06,2.49-7.93c0.08-2.52-0.75-4.62-2.9-6.09c-0.76-0.52-1.51-1.06-2.3-1.53
			c-0.34-0.2-0.45-0.22-0.56,0.23c-1.51,6.42-4.67,11.89-9.5,16.36c-4.18,3.87-9.06,6.42-14.6,7.69c-0.05,0.01-0.1,0.03-0.16,0.05
			c-0.02,0.22,0.12,0.36,0.21,0.52c0.61,1.07,1.3,2.08,2.1,3.01c1.38,1.61,3.22,2.15,5.26,2.13c2.79-0.03,5.36-0.85,7.74-2.28
			c0.9-0.54,1.78-1.13,2.68-1.68c0.18-0.11,0.39-0.35,0.6-0.22c0.19,0.12,0.11,0.42,0.09,0.63c-0.2,2.06-0.73,4.04-1.6,5.91
			c-1.25,2.69-2.86,5.1-5.16,7.06c-3.22,2.74-7.99,2.57-10.82,0.76c-0.73-0.47-1.46-0.93-2.19-1.39c-0.12-0.07-0.24-0.24-0.39-0.14
			c-0.14,0.09-0.09,0.28-0.08,0.42c0.04,1.05,0.37,2.04,0.61,3.04c0.68,2.92,0.39,5.67-1.13,8.3c-1.36,2.35-2.57,4.78-4.39,6.83
			c-0.26,0.29-0.31,0.26-0.54-0.01c-2.17-2.5-3.71-5.39-5.11-8.36c-1.07-2.27-0.89-4.66-0.35-7.04c0.21-0.9,0.5-1.78,0.55-2.71
			c0.01-0.17,0.06-0.38-0.08-0.47c-0.17-0.11-0.3,0.1-0.44,0.18c-0.57,0.36-1.14,0.72-1.71,1.1c-3.48,2.31-8.54,2.34-12.1-1.26
			c-3.29-3.32-5.26-7.3-5.9-11.94c-0.04-0.3-0.18-0.73,0.08-0.9c0.24-0.15,0.54,0.18,0.79,0.32c1.49,0.87,2.86,1.95,4.48,2.6
			c2.12,0.86,4.29,1.39,6.59,1.22c1.91-0.15,3.51-0.89,4.7-2.45c0.67-0.89,1.31-1.79,1.87-2.76c0.17-0.3,0.15-0.39-0.21-0.47
			c-12.08-2.72-21.42-12.07-24.19-24.22c-0.09-0.39-0.2-0.4-0.5-0.22c-1.13,0.68-2.23,1.4-3.21,2.3c-1.34,1.24-1.89,2.84-1.95,4.61
			c-0.1,3.01,0.77,5.77,2.3,8.33c0.53,0.89,1.11,1.75,1.65,2.63c0.11,0.18,0.35,0.39,0.2,0.6c-0.13,0.19-0.42,0.1-0.64,0.08
			c-1.82-0.2-3.59-0.61-5.27-1.35c-2.69-1.19-5.12-2.72-7.17-4.89c-3.19-3.38-3.18-8.37-1.09-11.61c0.43-0.67,0.85-1.33,1.27-2
			c0.07-0.11,0.2-0.21,0.14-0.35c-0.08-0.17-0.26-0.11-0.4-0.11c-0.95,0.03-1.85,0.33-2.76,0.55c-2.76,0.65-5.44,0.64-8-0.77
			c-1.47-0.8-2.93-1.6-4.36-2.49c-1.09-0.68-2.13-1.41-3.08-2.28c-0.16-0.14-0.28-0.17-0.04-0.39c2.58-2.25,5.55-3.88,8.62-5.29
			c2.23-1.03,4.59-0.79,6.92-0.25c0.82,0.19,1.63,0.45,2.48,0.52c0.2,0.02,0.47,0.1,0.59-0.06c0.14-0.2-0.11-0.37-0.21-0.53
			c-0.33-0.55-0.67-1.09-1.03-1.62c-2.32-3.5-2.31-8.62,1.23-12.14c3.27-3.25,7.18-5.21,11.73-5.91c0.36-0.05,0.86-0.23,1.06,0.06
			c0.19,0.28-0.21,0.63-0.39,0.93c-1.01,1.65-2.16,3.22-2.79,5.08c-0.79,2.32-1.28,4.66-0.73,7.1c0.31,1.35,0.98,2.47,2.08,3.34
			c1.03,0.82,2.09,1.59,3.3,2.22c0.57-2.58,1.38-5.02,2.56-7.32c4.59-8.95,11.77-14.65,21.52-17.07c0.37-0.09,0.43-0.16,0.24-0.48
			c-0.69-1.15-1.42-2.27-2.32-3.27c-1.21-1.33-2.79-1.89-4.54-1.95c-3.25-0.12-6.17,0.89-8.88,2.63c-0.73,0.47-1.46,0.93-2.19,1.38
			c-0.15,0.09-0.33,0.28-0.51,0.15c-0.16-0.11-0.09-0.35-0.08-0.53c0.18-2.1,0.71-4.12,1.61-6.03c1.3-2.75,2.89-5.3,5.36-7.17
			c3.25-2.46,6.71-2.56,10.28-0.8c0.89,0.44,1.69,1.05,2.54,1.57c0.12,0.07,0.25,0.25,0.39,0.12c0.07-0.06,0.07-0.24,0.06-0.37
			c-0.04-1.08-0.38-2.11-0.62-3.16c-0.66-2.9-0.36-5.63,1.15-8.24c1.37-2.36,2.59-4.81,4.43-6.87c0.17-0.19,0.2-0.29,0.42-0.02
			c2.2,2.55,3.79,5.48,5.2,8.5c1.05,2.25,0.85,4.63,0.31,6.99c-0.2,0.88-0.48,1.75-0.54,2.66c-0.01,0.18-0.08,0.41,0.09,0.52
			c0.16,0.1,0.3-0.1,0.44-0.19c1.05-0.66,2.04-1.45,3.2-1.9c3.62-1.4,7.03-1.08,10.01,1.56c3.54,3.14,5.57,7.14,6.39,11.79
			c0.07,0.39,0.09,0.79,0.13,1.18c0.04,0.41-0.11,0.53-0.48,0.29c-0.7-0.44-1.41-0.87-2.1-1.32c-2.6-1.71-5.43-2.73-8.56-2.77
			c-2.49-0.03-4.5,0.89-5.92,3c-0.49,0.73-1.01,1.45-1.46,2.22c-0.18,0.3-0.17,0.4,0.22,0.5c6.42,1.5,11.89,4.68,16.37,9.53
			c3.85,4.17,6.38,9.05,7.65,14.59c0.1,0.44,0.19,0.47,0.55,0.25c1.1-0.66,2.17-1.37,3.13-2.22c1.57-1.39,2.09-3.23,2.06-5.25
			c-0.04-2.78-0.86-5.34-2.28-7.71c-0.55-0.92-1.14-1.82-1.71-2.73c-0.1-0.17-0.32-0.38-0.22-0.55c0.14-0.22,0.45-0.14,0.69-0.11
			c1.67,0.2,3.3,0.54,4.86,1.19c3.15,1.31,5.96,3.08,8.16,5.77c2.59,3.16,2.38,7.8,0.76,10.47c-0.49,0.8-1,1.6-1.5,2.4
			c-0.08,0.12-0.24,0.24-0.16,0.39c0.09,0.18,0.3,0.13,0.46,0.11c0.98-0.08,1.92-0.35,2.87-0.59c3.03-0.76,5.87-0.4,8.58,1.19
			c2.27,1.33,4.62,2.52,6.61,4.29C300.99,535.26,300.93,535.32,300.65,535.57z"/>
		<path class="st0" d="M261.97,538.06c-7.28,0.01-14.57,0.01-21.85,0c-0.46,0-0.55,0.14-0.55,0.57c0.02,3.64,0.01,7.29,0.01,10.93
			c0,3.53,0,7.06,0,10.59c0,1.02,0,1.01,1.01,0.84c5.06-0.81,9.55-2.89,13.36-6.33c4.78-4.31,7.62-9.68,8.49-16.09
			C262.51,538.12,262.38,538.06,261.97,538.06z"/>
	</g>
	<path class="st0" d="M244.51,148.43c0,0,97.07,152.09-76.54,258.84c-12.43,7.64-23.96,16.69-34.05,27.25
		C10.77,563.26,173.35,765.26,352.61,628.7C302.97,750.58,95.05,756,24.71,611.16C6.4,573.47,2.96,530.29,11.68,489.29
		C54.49,287.9,271.45,374.46,244.51,148.43z"/>
	<g>
		<path class="st0" d="M449.63,387.93c3.99,0,7.46-0.31,10.4-0.93c2.94-0.62,5.46-1.4,7.57-2.35c2.11-0.95,3.88-1.98,5.34-3.11
			c1.45-1.13,2.76-2.17,3.92-3.11c1.16-0.95,2.25-1.73,3.27-2.35c1.02-0.62,2.11-0.93,3.27-0.93c1.16,0,2.12,0.2,2.89,0.6
			c0.76,0.4,1.32,0.86,1.69,1.37l12.42,14.97c-6.9,8.23-15.09,14.48-24.57,18.74s-20.25,6.39-32.3,6.39
			c-10.02,0-18.9-1.77-26.64-5.3c-7.74-3.53-14.26-8.4-19.56-14.59c-5.3-6.19-9.32-13.53-12.04-22.02
			c-2.72-8.49-4.09-17.65-4.09-27.49c0-9.11,1.02-17.74,3.05-25.9c2.03-8.16,4.9-15.7,8.61-22.62c3.7-6.92,8.15-13.15,13.35-18.69
			c5.19-5.54,10.95-10.24,17.27-14.1c6.32-3.86,13.11-6.83,20.37-8.91c7.26-2.08,14.85-3.11,22.77-3.11
			c5.95,0,11.39,0.57,16.29,1.69c4.9,1.13,9.33,2.7,13.29,4.7c3.96,2,7.5,4.39,10.62,7.16c3.12,2.77,5.85,5.83,8.17,9.18
			l-12.42,14.43c-0.87,1.02-1.89,1.93-3.05,2.73c-1.16,0.8-2.69,1.2-4.58,1.2c-1.24,0-2.36-0.29-3.38-0.87
			c-1.02-0.58-2.05-1.29-3.11-2.13c-1.05-0.84-2.23-1.77-3.54-2.79c-1.31-1.02-2.87-1.95-4.68-2.79c-1.82-0.84-3.98-1.55-6.48-2.13
			c-2.51-0.58-5.47-0.87-8.88-0.87c-6.68,0-12.91,1.42-18.68,4.26c-5.77,2.84-10.79,6.9-15.04,12.19
			c-4.25,5.28-7.57,11.69-9.97,19.24c-2.4,7.54-3.6,15.98-3.6,25.3c0,6.78,0.82,12.82,2.45,18.14c1.63,5.32,3.87,9.82,6.7,13.5
			c2.83,3.68,6.21,6.49,10.13,8.42C440.8,386.97,445.05,387.93,449.63,387.93z"/>
		<path class="st0" d="M548.12,415.47h-35.74l19.39-159.24h35.74L548.12,415.47z"/>
		<path class="st0" d="M709.36,415.47H681.9c-3.05,0-5.5-0.71-7.35-2.13c-1.85-1.42-2.96-3.3-3.32-5.63l-4.9-28.63h-53.93
			l-11.77,28.63c-0.8,2.04-2.36,3.84-4.68,5.41c-2.33,1.57-4.9,2.35-7.74,2.35h-27.89l75.83-159.24h36.39L709.36,415.47z
			 M622.31,354.82h39.88l-7.74-45.46c-0.65-3.79-1.36-7.63-2.12-11.53c-0.76-3.9-1.4-7.45-1.91-10.66
			c-0.58,1.75-1.34,3.73-2.29,5.96c-0.94,2.22-1.87,4.39-2.78,6.5c-0.91,2.11-1.78,4.08-2.61,5.9c-0.84,1.82-1.44,3.17-1.8,4.04
			L622.31,354.82z"/>
		<path class="st0" d="M807.85,359.62c1.16-2.4,2.38-4.77,3.65-7.1c1.27-2.33,2.6-4.66,3.98-6.99l48.59-83.83
			c1.45-2.48,3.27-4.01,5.45-4.59c2.18-0.58,4.28-0.87,6.32-0.87h27.89l-19.61,159.24h-31.16l11.11-92.68
			c0.22-1.97,0.56-4.13,1.03-6.5c0.47-2.37,1-4.83,1.58-7.38l-47.72,82.19c-1.45,2.48-3.34,4.32-5.67,5.52
			c-2.33,1.2-4.87,1.8-7.63,1.8h-4.79c-2.76,0-5.18-0.62-7.25-1.86c-2.07-1.24-3.51-3.06-4.3-5.46l-27.89-82.4
			c-0.15,2.48-0.27,4.88-0.38,7.21c-0.11,2.33-0.27,4.45-0.49,6.34l-10.89,93.22h-31.38l19.61-159.13h27.02c1.53,0,2.87,0,4.03,0
			c1.16,0,2.2,0.17,3.11,0.49c0.91,0.33,1.69,0.86,2.34,1.59s1.2,1.79,1.63,3.17l27.89,83.91
			C805.45,350.11,806.76,354.81,807.85,359.62z"/>
		<path class="st0" d="M945.78,415.47h-35.74l19.39-159.24h35.74L945.78,415.47z"/>
		<path class="st0" d="M1069.32,288.15c-1.24,1.75-2.49,3.02-3.76,3.83c-1.27,0.8-2.78,1.2-4.52,1.2c-1.67,0-3.34-0.55-5.01-1.64
			c-1.67-1.09-3.54-2.3-5.61-3.61c-2.07-1.31-4.45-2.51-7.14-3.61c-2.69-1.09-5.85-1.64-9.48-1.64c-3.34,0-6.26,0.47-8.77,1.42
			c-2.51,0.95-4.59,2.26-6.26,3.93c-1.67,1.68-2.92,3.64-3.76,5.9c-0.84,2.26-1.25,4.74-1.25,7.43c0,2.91,0.82,5.36,2.45,7.32
			c1.63,1.97,3.81,3.7,6.54,5.19c2.72,1.49,5.79,2.86,9.21,4.1c3.41,1.24,6.92,2.59,10.51,4.04c3.6,1.46,7.12,3.13,10.57,5.03
			c3.45,1.9,6.54,4.26,9.26,7.1c2.72,2.84,4.9,6.27,6.54,10.27c1.63,4.01,2.45,8.82,2.45,14.43c0,8.02-1.38,15.56-4.14,22.62
			c-2.76,7.07-6.72,13.24-11.88,18.52c-5.16,5.28-11.42,9.47-18.79,12.57c-7.37,3.1-15.67,4.64-24.89,4.64
			c-4.58,0-9.17-0.51-13.78-1.53c-4.61-1.02-9.04-2.46-13.29-4.32c-4.25-1.86-8.19-4.06-11.82-6.61c-3.63-2.55-6.72-5.39-9.26-8.52
			l12.64-16.61c0.94-1.24,2.18-2.26,3.7-3.06c1.53-0.8,3.05-1.2,4.58-1.2c2.03,0,4.01,0.71,5.94,2.13c1.92,1.42,4.05,2.99,6.37,4.7
			c2.32,1.71,5.03,3.28,8.12,4.7c3.09,1.42,6.88,2.13,11.39,2.13c6.61,0,11.71-1.8,15.31-5.41c3.6-3.61,5.39-8.94,5.39-16.01
			c0-3.28-0.82-5.97-2.45-8.09c-1.63-2.11-3.78-3.9-6.43-5.36c-2.65-1.46-5.68-2.75-9.1-3.88c-3.41-1.13-6.9-2.35-10.46-3.66
			c-3.56-1.31-7.05-2.86-10.46-4.64c-3.41-1.78-6.45-4.12-9.1-6.99c-2.65-2.88-4.79-6.41-6.43-10.6c-1.63-4.19-2.45-9.34-2.45-15.46
			c0-7.07,1.32-13.86,3.98-20.38c2.65-6.52,6.45-12.3,11.39-17.32c4.94-5.03,10.93-9.03,17.98-12.02
			c7.04-2.99,14.96-4.48,23.75-4.48c4.5,0,8.88,0.47,13.13,1.42c4.25,0.95,8.23,2.26,11.93,3.93c3.7,1.68,7.08,3.66,10.13,5.96
			c3.05,2.3,5.63,4.79,7.74,7.49L1069.32,288.15z"/>
	</g>
	<g>
		<path class="st0" d="M505.63,454.16l-2.94,23.28h-43.14l-16.56,134.75h-28.11l16.45-134.75h-43.25l2.83-23.28H505.63z"/>
		<path class="st0" d="M534.39,612.19h-28.44l19.28-158.03h28.44L534.39,612.19z"/>
		<path class="st0" d="M649.98,554.82c0.51,1.97,1.02,3.97,1.53,6.01c0.87-2.04,1.81-4.04,2.83-6.01c1.02-1.97,2.11-3.9,3.27-5.79
			l54.69-90.27c0.65-1.09,1.32-1.95,2.02-2.57c0.69-0.62,1.42-1.07,2.18-1.37c0.76-0.29,1.62-0.47,2.56-0.55
			c0.94-0.07,2.03-0.11,3.27-0.11h21.46l-19.39,158.03h-24.84l12.64-102.95c0.22-1.89,0.54-3.97,0.98-6.23
			c0.44-2.26,0.91-4.55,1.42-6.89l-54.15,90.27c-1.24,2.04-2.78,3.57-4.63,4.59c-1.85,1.02-3.87,1.53-6.05,1.53h-3.92
			c-2.18,0-4.09-0.51-5.72-1.53c-1.63-1.02-2.82-2.55-3.54-4.59l-32.47-89.95c-0.07,2.26-0.16,4.45-0.27,6.56
			c-0.11,2.11-0.27,4.04-0.49,5.79l-12.42,103.39h-24.95l19.39-158.03h21.25c1.23,0,2.32,0.04,3.27,0.11
			c0.94,0.07,1.78,0.26,2.51,0.55c0.73,0.29,1.34,0.75,1.85,1.37c0.51,0.62,0.98,1.48,1.42,2.57l32.58,90.27
			C648.89,550.92,649.47,552.85,649.98,554.82z"/>
		<path class="st0" d="M864.07,454.16l-2.83,22.62h-63.41l-5.45,44.92h49.79l-2.72,21.75h-49.79l-5.67,46.12h63.63l-2.83,22.62
			h-91.95l19.39-158.03H864.07z"/>
		<path class="st0" d="M961.58,482.58c-1.02,1.46-2.03,2.53-3.05,3.22c-1.02,0.69-2.25,1.04-3.7,1.04c-1.45,0-2.94-0.58-4.47-1.75
			c-1.53-1.16-3.34-2.46-5.45-3.88c-2.11-1.42-4.59-2.71-7.46-3.88c-2.87-1.16-6.34-1.75-10.4-1.75c-4,0-7.52,0.58-10.57,1.75
			c-3.05,1.17-5.61,2.77-7.68,4.81c-2.07,2.04-3.63,4.45-4.68,7.21c-1.05,2.77-1.58,5.76-1.58,8.96c0,3.35,0.85,6.14,2.56,8.36
			c1.71,2.22,3.94,4.17,6.7,5.85c2.76,1.68,5.92,3.17,9.48,4.48c3.56,1.31,7.17,2.7,10.84,4.15c3.67,1.46,7.28,3.13,10.84,5.03
			c3.56,1.9,6.72,4.23,9.48,6.99c2.76,2.77,4.99,6.1,6.7,10c1.71,3.9,2.56,8.62,2.56,14.15c0,7.72-1.33,15.01-3.98,21.86
			c-2.65,6.85-6.47,12.84-11.44,17.98c-4.98,5.14-11,9.22-18.09,12.24c-7.08,3.02-15.05,4.54-23.91,4.54
			c-4.58,0-9.08-0.49-13.51-1.48c-4.43-0.98-8.61-2.39-12.53-4.21c-3.92-1.82-7.55-4.01-10.89-6.56c-3.34-2.55-6.25-5.39-8.72-8.52
			l10.02-13.55c0.8-1.02,1.81-1.86,3.05-2.51c1.23-0.66,2.47-0.98,3.7-0.98c1.16,0,2.3,0.37,3.43,1.09c1.13,0.73,2.36,1.62,3.7,2.68
			c1.34,1.06,2.8,2.22,4.36,3.5c1.56,1.28,3.36,2.44,5.39,3.5c2.03,1.06,4.32,1.95,6.86,2.68c2.54,0.73,5.48,1.09,8.82,1.09
			c8.21,0,14.64-2.33,19.28-6.99c4.65-4.66,6.97-11.11,6.97-19.34c0-3.64-0.84-6.63-2.51-8.96c-1.67-2.33-3.89-4.3-6.65-5.9
			c-2.76-1.6-5.88-3.01-9.37-4.21c-3.49-1.2-7.06-2.48-10.73-3.83c-3.67-1.35-7.25-2.91-10.73-4.7c-3.49-1.78-6.61-4.08-9.37-6.89
			c-2.76-2.8-4.98-6.25-6.65-10.33c-1.67-4.08-2.51-9.11-2.51-15.08c0-6.78,1.25-13.3,3.76-19.56c2.51-6.27,6.08-11.78,10.73-16.56
			c4.65-4.77,10.3-8.6,16.94-11.48c6.65-2.88,14.14-4.32,22.5-4.32c4.28,0,8.41,0.44,12.37,1.31c3.96,0.87,7.64,2.11,11.06,3.72
			c3.41,1.6,6.55,3.52,9.42,5.74c2.87,2.22,5.36,4.68,7.46,7.38L961.58,482.58z"/>
	</g>
	<path class="st0" d="M232.76,126.83c-6.88,8.19-11.42,17.33-13.67,27.4c0,0-14.51-92.71-78.86-154.22
		C193.19,317.39-6.28,273.92,0.15,503.05C45.73,258.55,268.77,379.05,232.76,126.83z M144.13,251.52c-4.34,0-7.85-3.53-7.85-7.88
		c0-4.35,3.51-7.88,7.85-7.88c4.34,0,7.85,3.53,7.85,7.88C151.98,248,148.46,251.52,144.13,251.52z M155.48,226.68
		c-4.34,0-7.85-3.53-7.85-7.88c0-4.35,3.51-7.88,7.85-7.88s7.85,3.53,7.85,7.88C163.33,223.15,159.82,226.68,155.48,226.68z
		 M163.33,201.84c-4.34,0-7.85-3.53-7.85-7.88c0-4.35,3.51-7.88,7.85-7.88c4.34,0,7.85,3.53,7.85,7.88
		C171.18,198.31,167.67,201.84,163.33,201.84z"/>
</g>
</svg>
